<?xml version="1.0" standalone="no"?>
<!DOCTYPE svg PUBLIC "-//W3C//DTD SVG 20010904//EN"
 "http://www.w3.org/TR/2001/REC-SVG-20010904/DTD/svg10.dtd">
<svg version="1.0" xmlns="http://www.w3.org/2000/svg"
 width="690.000000pt" height="212.000000pt" viewBox="0 0 690.000000 212.000000"
 preserveAspectRatio="xMidYMid meet">

<g transform="translate(0.000000,212.000000) scale(0.100000,-0.100000)"
fill="#000000" stroke="none">
<path d="M835 2064 c-78 -47 -108 -65 -503 -294 l-332 -193 2 -535 3 -535 80
-47 c44 -26 161 -93 260 -150 276 -158 415 -239 477 -276 31 -19 68 -34 83
-34 31 0 29 -1 435 235 162 94 337 195 388 225 l92 52 0 533 0 533 -67 40
c-38 21 -223 129 -413 237 -190 109 -363 209 -385 222 -22 12 -44 23 -50 23
-5 0 -37 -17 -70 -36z m252 -507 c98 -57 217 -126 265 -153 l88 -49 -3 -310
-2 -309 -263 -153 -263 -153 -157 91 c-86 50 -205 119 -264 153 l-108 61 0
313 c0 171 4 312 8 312 5 0 37 17 73 38 35 21 120 71 189 111 69 40 154 91
190 112 36 21 66 39 67 39 1 0 82 -46 180 -103z"/>
<path d="M4366 1439 c-57 -45 -10 -152 58 -135 65 16 87 86 41 131 -30 31 -64
32 -99 4z"/>
<path d="M5539 1450 c-28 -17 -43 -66 -30 -99 12 -27 47 -51 76 -51 29 0 68
46 68 80 0 57 -67 98 -114 70z"/>
<path d="M2648 1436 c-120 -35 -206 -107 -256 -214 -24 -51 -27 -69 -27 -167
0 -104 2 -114 32 -176 39 -79 102 -140 181 -177 51 -24 69 -27 162 -27 110 1
145 11 222 68 34 25 95 112 103 148 6 24 3 27 -47 41 l-53 15 -27 -47 c-14
-25 -45 -59 -69 -75 -35 -25 -54 -30 -115 -33 -87 -5 -128 7 -182 54 -59 51
-85 125 -80 229 5 85 21 129 67 178 57 62 163 91 249 68 51 -14 115 -68 133
-114 7 -17 14 -33 15 -35 1 -2 27 4 58 14 63 20 64 24 21 100 -70 120 -248
190 -387 150z"/>
<path d="M3190 1070 l0 -380 55 0 55 0 0 114 c0 178 8 232 40 267 23 24 36 29
75 29 38 0 52 -5 76 -29 l29 -29 0 -176 0 -176 60 0 60 0 0 168 c-1 187 -9
241 -47 290 -59 77 -196 84 -275 14 -17 -14 -18 -7 -18 136 l0 152 -55 0 -55
0 0 -380z"/>
<path d="M5240 1070 l0 -380 60 0 60 0 0 380 0 380 -60 0 -60 0 0 -380z"/>
<path d="M6410 1070 l0 -380 60 0 60 0 0 73 c0 67 2 75 28 100 15 15 31 27 34
27 3 0 38 -47 78 -105 l74 -105 68 0 c37 0 68 3 68 6 0 3 -45 69 -100 145 -55
77 -100 145 -100 152 0 6 46 58 102 114 l103 103 -78 0 -77 0 -100 -102 -99
-103 -1 228 0 227 -60 0 -60 0 0 -380z"/>
<path d="M3885 1191 c-47 -22 -89 -64 -105 -105 -13 -36 -8 -41 51 -53 l46
-10 13 34 c21 60 103 78 168 37 16 -10 22 -24 22 -49 0 -18 -4 -36 -8 -39 -5
-3 -53 -12 -107 -21 -152 -24 -200 -63 -200 -160 0 -91 67 -155 161 -155 63 0
100 13 136 47 l26 25 7 -31 c6 -30 9 -31 58 -31 l52 0 -5 202 c-5 213 -10 238
-57 280 -54 49 -183 64 -258 29z m205 -296 c0 -70 -61 -135 -126 -135 -42 0
-84 34 -84 68 1 47 24 65 103 78 107 18 107 18 107 -11z"/>
<path d="M4824 1196 c-17 -8 -40 -26 -52 -41 l-22 -28 0 37 0 36 -60 0 -60 0
0 -255 0 -255 59 0 60 0 3 176 3 176 33 29 c43 38 107 41 149 5 l28 -24 3
-181 3 -181 60 0 59 0 0 165 c0 90 -5 187 -11 215 -12 59 -49 107 -96 126 -41
18 -119 17 -159 0z"/>
<path d="M5995 1196 c-16 -7 -39 -23 -49 -35 -26 -29 -36 -26 -36 9 0 30 -1
30 -55 30 l-55 0 0 -255 0 -255 60 0 60 0 0 171 0 171 34 34 c28 28 41 34 78
34 48 0 82 -23 99 -67 5 -13 9 -96 9 -184 l0 -159 55 0 55 0 0 193 c0 183 -1
196 -23 238 -40 76 -149 111 -232 75z"/>
<path d="M4350 940 l0 -260 23 0 c12 0 39 3 60 6 l37 7 0 253 0 254 -60 0 -60
0 0 -260z"/>
<path d="M5520 939 l0 -262 46 7 c26 3 53 6 60 6 12 0 14 47 14 255 l0 255
-60 0 -60 0 0 -261z"/>
</g>
</svg>
