<?xml version="1.0" standalone="no"?>
<!DOCTYPE svg PUBLIC "-//W3C//DTD SVG 20010904//EN"
 "http://www.w3.org/TR/2001/REC-SVG-20010904/DTD/svg10.dtd">
<svg version="1.0" xmlns="http://www.w3.org/2000/svg"
 width="697.000000pt" height="142.000000pt" viewBox="0 0 697.000000 142.000000"
 preserveAspectRatio="xMidYMid meet">

<g transform="translate(0.000000,142.000000) scale(0.100000,-0.100000)"
fill="#000000" stroke="none">
<path d="M315 1089 c-137 -172 -255 -320 -262 -329 -10 -14 19 -73 189 -376
110 -197 201 -360 202 -361 2 -2 152 5 334 14 l332 17 9 31 c4 16 72 252 151
523 78 271 140 495 137 498 -3 3 -132 -52 -286 -122 -155 -69 -284 -124 -288
-121 -3 4 -65 126 -137 273 l-131 266 -250 -313z m341 -184 c59 -124 113 -225
119 -224 5 0 102 42 215 93 113 51 206 93 207 92 2 -2 -187 -666 -192 -673 -1
-2 -479 -31 -481 -29 -1 0 -72 127 -158 281 -133 237 -155 283 -146 299 27 44
314 395 320 391 4 -2 56 -106 116 -230z"/>
<path d="M1775 1209 c-3 -8 -4 -219 -3 -469 l3 -455 98 -3 97 -3 0 149 0 149
123 6 c205 11 284 49 345 167 33 63 34 68 30 160 -3 82 -8 102 -33 149 -36 65
-82 104 -155 133 -48 18 -82 21 -277 26 -183 4 -224 2 -228 -9z m424 -177 c93
-50 95 -212 2 -266 -24 -14 -59 -20 -132 -24 l-99 -5 0 157 0 156 98 0 c75 0
105 -4 131 -18z"/>
<path d="M3245 1208 c-3 -7 -4 -218 -3 -468 l3 -455 98 -3 97 -3 -2 468 -3
468 -93 3 c-68 2 -94 -1 -97 -10z"/>
<path d="M4220 750 l0 -470 95 0 95 0 0 57 0 57 37 -44 c64 -75 145 -96 249
-65 99 29 163 109 190 236 45 209 -38 409 -187 453 -107 32 -187 12 -252 -64
l-37 -44 0 177 0 177 -95 0 -95 0 0 -470z m410 62 c46 -33 65 -88 65 -182 0
-138 -47 -200 -151 -200 -85 0 -134 75 -134 208 0 64 18 121 48 156 42 47 120
56 172 18z"/>
<path d="M2724 974 c-81 -25 -143 -79 -184 -158 -32 -62 -35 -78 -38 -167 -6
-174 45 -275 173 -339 65 -33 76 -35 166 -35 90 0 100 2 165 35 55 28 76 46
107 90 68 99 86 237 47 363 -26 84 -96 164 -172 197 -69 29 -192 36 -264 14z
m198 -160 c62 -56 81 -223 36 -313 -54 -105 -184 -106 -238 -2 -57 113 -22
295 64 332 33 14 114 4 138 -17z"/>
<path d="M5162 979 c-63 -12 -121 -48 -159 -97 -30 -40 -51 -88 -42 -97 3 -2
43 -7 91 -11 81 -6 86 -5 92 14 10 31 67 62 114 62 56 0 102 -39 102 -86 0
-44 -14 -50 -152 -70 -169 -23 -232 -57 -264 -141 -21 -55 -14 -140 16 -188
32 -51 98 -86 173 -92 88 -7 143 10 194 62 l43 42 0 -49 0 -49 93 3 92 3 0
265 c0 264 0 265 -25 310 -58 104 -205 151 -368 119z m198 -430 c0 -78 -30
-119 -105 -140 -48 -13 -109 2 -125 31 -16 30 -12 78 9 99 11 11 43 24 73 30
29 7 71 16 93 20 22 5 43 9 48 10 4 1 7 -22 7 -50z"/>
<path d="M5823 980 c-117 -24 -193 -105 -193 -209 0 -111 72 -172 240 -205
118 -24 149 -35 161 -58 28 -53 -23 -98 -112 -98 -48 0 -55 3 -90 40 l-38 40
-85 0 c-49 0 -88 -4 -91 -11 -4 -5 6 -36 22 -67 49 -99 165 -149 325 -140 176
10 296 125 273 260 -5 25 -20 55 -42 79 -37 41 -85 60 -248 98 -118 27 -148
60 -106 112 14 18 31 23 77 27 54 4 63 1 92 -23 18 -15 32 -33 32 -40 0 -11
17 -13 88 -8 48 3 88 7 90 8 2 2 -2 22 -9 45 -36 120 -205 185 -386 150z"/>
<path d="M6505 976 c-63 -20 -97 -41 -143 -87 -65 -66 -86 -131 -87 -264 0
-105 2 -114 33 -178 24 -48 48 -79 83 -107 69 -54 107 -65 229 -65 117 0 166
16 232 74 36 31 85 118 73 130 -4 3 -43 8 -87 10 -78 3 -80 3 -110 -28 -56
-58 -150 -63 -210 -13 -32 27 -58 77 -58 112 0 20 5 20 236 20 l236 0 -4 90
c-4 77 -9 98 -39 156 -26 51 -46 76 -82 101 -87 59 -208 79 -302 49z m189
-157 c30 -24 56 -69 56 -99 0 -19 -5 -20 -145 -20 -127 0 -145 2 -145 16 0 30
43 93 74 108 46 23 127 21 160 -5z"/>
<path d="M3480 971 c0 -5 54 -164 120 -354 66 -191 120 -351 120 -357 0 -24
-31 -69 -52 -77 -13 -4 -41 -8 -62 -8 l-40 0 -19 -64 c-12 -41 -15 -67 -9 -73
16 -16 136 -22 190 -8 62 14 125 66 156 129 13 25 78 201 144 391 66 190 128
364 136 388 l15 42 -103 0 -103 0 -68 -242 c-37 -134 -71 -249 -75 -257 -9
-17 -9 -15 -91 277 l-62 222 -98 0 c-55 0 -99 -4 -99 -9z"/>
</g>
</svg>
