<?xml version="1.0" standalone="no"?>
<!DOCTYPE svg PUBLIC "-//W3C//DTD SVG 20010904//EN"
 "http://www.w3.org/TR/2001/REC-SVG-20010904/DTD/svg10.dtd">
<svg version="1.0" xmlns="http://www.w3.org/2000/svg"
 width="414.000000pt" height="482.000000pt" viewBox="0 0 414.000000 482.000000"
 preserveAspectRatio="xMidYMid meet">

<g transform="translate(0.000000,482.000000) scale(0.100000,-0.100000)"
fill="#000000" stroke="none">
<path d="M1305 4742 c28 -26 88 -80 133 -121 87 -77 117 -112 110 -132 -2 -7
-35 16 -74 53 -93 87 -179 146 -223 154 -20 4 -48 17 -62 31 -23 21 -34 24
-95 21 l-69 -3 28 -25 c25 -24 26 -27 11 -48 -8 -12 -26 -22 -39 -22 -13 0
-31 -10 -39 -21 l-15 -22 -88 38 c-48 20 -94 39 -100 42 -9 4 -13 -6 -13 -31
0 -35 -1 -36 -35 -36 -24 0 -38 -5 -42 -16 -8 -22 22 -44 59 -44 25 0 28 -4
28 -30 0 -25 20 -54 97 -142 54 -61 120 -126 148 -143 90 -58 262 -248 456
-505 165 -218 559 -863 559 -915 0 -11 -69 -93 -570 -680 -256 -300 -507 -619
-695 -881 -13 -18 1 -29 24 -18 21 10 89 92 149 181 23 34 80 103 127 153 47
50 85 95 85 100 0 12 49 45 56 38 3 -3 -23 -40 -58 -83 -35 -42 -85 -108 -113
-146 -27 -37 -111 -144 -186 -236 -74 -92 -153 -193 -174 -223 -21 -30 -70
-95 -109 -145 -38 -49 -71 -92 -72 -93 -1 -2 -12 -1 -23 3 -18 5 -19 10 -10
28 10 21 10 21 -5 3 -14 -17 -14 -21 -1 -36 8 -9 15 -20 15 -24 0 -6 -111
-149 -179 -230 -15 -18 -15 -18 6 -7 12 6 48 41 80 78 32 37 105 117 163 178
58 61 161 171 229 244 121 129 166 169 177 158 9 -9 -16 -48 -74 -117 -30 -36
-85 -110 -121 -164 -36 -55 -86 -122 -111 -150 -53 -59 -144 -172 -215 -266
-26 -36 -76 -96 -109 -135 -34 -38 -79 -92 -102 -120 -44 -55 -161 -202 -178
-224 -8 -11 -4 -10 20 2 17 9 51 40 75 69 24 29 71 80 104 113 33 33 132 138
220 234 226 246 622 657 657 683 28 19 29 19 20 2 -18 -32 -140 -175 -223
-260 -44 -45 -79 -87 -79 -94 0 -6 -30 -44 -67 -83 -53 -56 -59 -64 -26 -39
23 18 56 39 75 46 34 15 619 603 697 702 38 48 58 64 82 64 23 0 4 -28 -60
-89 -62 -59 -125 -127 -426 -455 -49 -54 -105 -119 -123 -144 -18 -26 -47 -55
-64 -66 -17 -11 -26 -22 -20 -24 16 -5 131 98 251 223 186 195 415 425 423
425 4 0 8 -7 8 -16 0 -21 179 146 414 386 105 107 218 220 251 250 136 124
167 159 159 183 -9 32 1 19 106 -133 205 -295 331 -444 589 -695 141 -138 221
-203 107 -88 -62 63 -82 91 -72 101 4 3 32 -19 64 -49 78 -76 201 -159 236
-159 11 0 34 -11 52 -25 38 -29 98 -41 137 -26 l29 11 -64 46 c-72 53 -118 94
-118 106 0 4 13 8 30 8 21 0 39 -11 67 -40 32 -36 41 -40 67 -34 17 3 41 15
53 27 l23 20 70 -33 c39 -17 86 -33 103 -34 29 -1 32 2 30 27 -2 25 1 27 33
27 26 0 34 4 34 18 0 29 -13 40 -50 44 -32 3 -35 6 -41 41 -4 23 -19 52 -40
75 -106 116 -170 178 -219 212 -124 85 -455 494 -624 770 -32 52 -82 131 -112
175 -29 45 -56 88 -60 98 -4 12 9 34 46 74 29 31 59 68 68 82 9 15 32 44 52
66 32 36 155 201 205 276 11 16 46 64 79 107 32 42 81 111 109 152 28 41 65
93 83 115 18 23 46 71 63 108 16 36 48 92 69 124 103 151 158 266 150 315 -2
15 -23 -9 -79 -93 -42 -63 -118 -177 -169 -254 -51 -77 -110 -159 -131 -183
-20 -23 -79 -103 -129 -177 -51 -74 -102 -142 -113 -152 -20 -18 -20 -18 -2
17 10 19 36 62 59 95 23 33 64 98 91 145 27 47 103 171 169 275 84 134 125
208 136 250 20 73 58 149 116 233 24 35 44 65 44 67 0 16 -43 0 -71 -26 -47
-42 -134 -109 -143 -109 -3 0 -11 12 -17 26 -5 15 -11 25 -13 23 -46 -53 -116
-149 -194 -267 -54 -81 -118 -177 -142 -214 -25 -37 -61 -92 -80 -122 -31 -52
-50 -69 -50 -47 0 5 21 37 46 71 69 94 84 122 84 158 0 37 13 65 70 153 21 33
53 102 70 154 18 53 46 113 64 137 44 57 62 95 69 142 4 22 27 70 52 109 26
38 45 71 43 73 -6 6 -212 -224 -279 -311 -104 -136 -198 -244 -355 -405 -90
-93 -173 -189 -206 -240 -31 -47 -92 -123 -136 -170 -94 -101 -88 -102 -163
38 -29 54 -75 133 -102 177 -76 121 -327 471 -394 547 -116 135 -281 305 -397
413 -65 61 -145 136 -178 168 -32 31 -64 57 -71 57 -7 0 11 -22 38 -48z m-145
-99 c23 -20 46 -45 51 -56 9 -16 8 -18 -8 -14 -10 3 -30 8 -44 11 -23 5 -79
69 -79 89 0 19 45 3 80 -30z m1940 -1549 c0 -13 -21 -44 -30 -44 -11 0 -14 33
-3 43 8 8 33 9 33 1z m-2310 -2012 c0 -13 -12 -22 -22 -16 -10 6 -1 24 13 24
5 0 9 -4 9 -8z"/>
<path d="M4080 2260 c0 -13 7 -20 20 -20 13 0 20 7 20 20 0 13 -7 20 -20 20
-13 0 -20 -7 -20 -20z"/>
<path d="M725 1204 c-10 -16 -35 -55 -57 -87 -43 -64 -43 -93 0 -37 15 19 44
54 66 78 36 39 38 44 24 59 -15 14 -18 13 -33 -13z"/>
</g>
</svg>
